<svg xmlns="http://www.w3.org/2000/svg" width="192.101" height="67.717" viewBox="0 0 192.101 67.717">
  <g id="Group_1" data-name="Group 1" transform="translate(-151.96 -623.478)">
    <path id="Path_1" data-name="Path 1" d="M243.534,751.633a10.737,10.737,0,0,1-1.258,4.013,6.5,6.5,0,0,1-4.117,3.17,9.426,9.426,0,0,1-4.644.067,6.813,6.813,0,0,1-4.713-3.78,10.983,10.983,0,0,1-1.018-3.617,19.7,19.7,0,0,1-.131-2.469c.009-2.237,0-4.472,0-6.709q0-3.906,0-7.814c0-.179-.105-.442.126-.513.163-.046.27.188.383.314q7.488,8.248,14.972,16.5a2.361,2.361,0,0,0,.177.193A.668.668,0,0,1,243.534,751.633Z" transform="translate(-58.331 -85.171)" fill="#1dcc1d"/>
    <path id="Path_2" data-name="Path 2" d="M220.872,649.794a33.15,33.15,0,0,0-11.8-18.559,34.908,34.908,0,0,0-22.194-7.756,35.346,35.346,0,0,0-25.616,10.858,32.8,32.8,0,0,0-9.251,21.349,31.783,31.783,0,0,0,.814,9.115,32.839,32.839,0,0,0,8.82,15.916,35.555,35.555,0,0,0,50.671-.257,32.81,32.81,0,0,0,9.377-21.293A31.393,31.393,0,0,0,220.872,649.794Zm-20.581-15.646a2.991,2.991,0,1,1-3.03,2.991A2.96,2.96,0,0,1,200.292,634.148Zm-13.005,0a2.991,2.991,0,1,1-3.012,2.936A2.979,2.979,0,0,1,187.286,634.148Zm15.969,41.631c0,.238-.007.479,0,.717a1.479,1.479,0,0,1-.8,1.325,2.841,2.841,0,0,1-1.366.4,16.027,16.027,0,0,1-2.927-.071,5.84,5.84,0,0,1-2.569-1.038,12.317,12.317,0,0,1-1.973-1.795c-1.38-1.506-2.744-3.026-4.126-4.527-.195-.213-.319-.53-.667-.571a2.667,2.667,0,0,0-.351.761,10.923,10.923,0,0,1-4.158,5.134,11.966,11.966,0,0,1-4.8,1.74,16.45,16.45,0,0,1-3.706.117,11.476,11.476,0,0,1-6.6-2.482,10.436,10.436,0,0,1-3.014-4.107,15.173,15.173,0,0,1-1.059-4.151,22,22,0,0,1-.131-2.663q0-10.682,0-21.365c0-.218,0-.433,0-.651a.617.617,0,0,1,.431-.594,2.85,2.85,0,0,1,.626-.172,7.752,7.752,0,0,1,2.21,0,2.744,2.744,0,0,1,1.4.644A23.934,23.934,0,0,1,172,644.7q6.381,7.055,12.778,14.1c.128.14.252.415.422.358.245-.08.121-.376.121-.575q.01-7.653,0-15.307c0-.218.007-.436,0-.651a.675.675,0,0,1,.546-.713,4.274,4.274,0,0,1,.635-.14,7.718,7.718,0,0,1,1.951,0,3.285,3.285,0,0,1,.692.17.693.693,0,0,1,.5.692c0,.218,0,.433,0,.651v19.932a4.323,4.323,0,0,1,0,.456,1.16,1.16,0,0,0,.362.928q3.624,4.1,7.227,8.222c.1.115.2.225.312.33a.121.121,0,0,0,.195-.078c.011-.174.014-.346.014-.52q-.01-14.653-.023-29.309c0-.218,0-.435,0-.651a.573.573,0,0,1,.385-.552,2.456,2.456,0,0,1,.562-.16,12.772,12.772,0,0,1,3.571,0,2.121,2.121,0,0,1,.319.062c.534.158.658.323.672.88,0,.218,0,.435,0,.651Z" transform="translate(0 0)" fill="#1dcc1d"/>
    <path id="Path_3" data-name="Path 3" d="M849.764,672.233a1.761,1.761,0,0,0,.075-.761q0-2.605,0-5.211c0-.8-.027-.794.783-.794q2.086,0,4.173,0c.173,0,.348,0,.52.018.193.018.268.094.288.288s.023.39.032.585q.115,2.668.232,5.336c.03.665.035.67.719.832a27.188,27.188,0,0,1,3.547,1.087,18.06,18.06,0,0,1,4.923,2.763,11.993,11.993,0,0,1,4.331,6.787,11.219,11.219,0,0,1,.222,4.074,1.449,1.449,0,0,1-.07.315.106.106,0,0,1-.161.05,1.755,1.755,0,0,1-.251-.2,17.6,17.6,0,0,0-3.416-2.6,47.694,47.694,0,0,0-6.53-3.241q-2.255-.942-4.568-1.73c-.205-.069-.406-.152-.605-.237a.12.12,0,0,1-.062-.162,3.016,3.016,0,0,1,.187-.342c.381-.607.767-1.211,1.147-1.818.076-.122.2-.232.141-.421a1.422,1.422,0,0,0-.632.062q-5.282,1.15-10.564,2.3c-.042.009-.085.015-.128.025-.672.154-.678.157-.3.711q3,4.422,6,8.84c.318.468.334.462.621-.034.218-.376.435-.752.661-1.122a5.6,5.6,0,0,1,.338-.479.462.462,0,0,1,.513-.187c.508.116,1.021.209,1.529.322a55.791,55.791,0,0,1,8.364,2.464,27.1,27.1,0,0,1,3.36,1.575,14.856,14.856,0,0,1,1.8,1.174,5.613,5.613,0,0,1,1.894,2.519,15.068,15.068,0,0,1,1,5.543,10.586,10.586,0,0,1-3.1,7.378,16.217,16.217,0,0,1-4.19,3.064,25.111,25.111,0,0,1-6.483,2.314c-.656.14-.607.206-.626.767-.033,1.042-.062,2.083-.093,3.125,0,.152-.005.3-.02.455-.018.19-.093.26-.292.281a3.752,3.752,0,0,1-.391.016q-2.249,0-4.5,0a3.758,3.758,0,0,1-.391-.017c-.2-.021-.275-.091-.286-.284-.018-.325-.023-.651-.029-.976q-.028-1.628-.054-3.256c0-.065,0-.13,0-.2-.015-.4-.107-.392-.349-.453-.274-.069-.545-.146-.817-.221a23.452,23.452,0,0,1-7.046-3.149,16.014,16.014,0,0,1-5.554-6.349,15.606,15.606,0,0,1-1.5-5.7c-.012-.173-.016-.347-.014-.521,0-.1-.03-.23.077-.3s.2.036.276.105a17.714,17.714,0,0,0,4.181,2.744,65.744,65.744,0,0,0,8.183,3.378c1.517.53,3.043,1.032,4.585,1.484q.281.082.556.184a.168.168,0,0,1,.109.255c-.067.136-.139.27-.213.4q-.571,1.024-1.144,2.047c-.084.152-.164.306-.245.46-.031.059-.049.134.007.172a.252.252,0,0,0,.18.024q.729-.175,1.454-.362l9.965-2.574c.168-.043.336-.088.5-.141s.189-.143.1-.3-.182-.3-.277-.441q-2.857-4.359-5.715-8.717c-.1-.145-.191-.29-.3-.429a.176.176,0,0,0-.319,0c-.336.453-.66.917-1,1.368-.168.224-.272.528-.535.642s-.556-.024-.831-.066a41.113,41.113,0,0,1-9.5-2.458,19.107,19.107,0,0,1-4.264-2.36,11.42,11.42,0,0,1-2.236-2.174,7.711,7.711,0,0,1-1.591-3.661,4.137,4.137,0,0,1-.054-.583,16.215,16.215,0,0,1,.428-3.939,10.748,10.748,0,0,1,3.975-6.027,15.738,15.738,0,0,1,5.49-2.627,21.963,21.963,0,0,1,3.391-.631A.717.717,0,0,0,849.764,672.233Z" transform="translate(-525.818 -32.365)" fill="#1dcc1d"/>
    <path id="Path_4" data-name="Path 4" d="M676.976,715.251q0-9.7,0-19.409c0-1.123-.1-1.009,1.017-1.012,2.173-.005,4.346,0,6.518,0,.174,0,.348.008.521,0a.514.514,0,0,1,.529.3c.079.155.169.3.252.456q6.283,11.374,12.556,22.752c1.315,2.4,2.526,4.852,3.784,7.281.329.636.654,1.275.983,1.911a4.545,4.545,0,0,0,.23.392c.014.022.073.019.111.017.015,0,.037-.025.042-.043a.921.921,0,0,0,.034-.19c0-.217,0-.434,0-.651q0-15.566,0-31.132c0-1.235-.105-1.085,1.072-1.091,1.412-.008,2.825,0,4.237,0,.174,0,.348,0,.521.015s.258.1.282.294a2.266,2.266,0,0,1,.014.26c0,.2,0,.391,0,.586q0,19.311,0,38.622c0,.282,0,.565-.017.846-.011.187-.1.268-.291.284-.173.015-.347.016-.521.016h-7.04a.82.82,0,0,0-.13,0c-.432.068-.661-.143-.863-.515-1.617-2.976-3.255-5.94-4.885-8.908q-4.2-7.65-8.4-15.3c-.93-1.694-1.732-3.453-2.6-5.18-.457-.912-.9-1.83-1.355-2.744-.077-.156-.153-.312-.241-.462a.236.236,0,0,0-.143-.107c-.083-.013-.1.073-.1.133-.01.152-.014.3-.015.455,0,.434,0,.868,0,1.3q0,15.11,0,30.22c0,.26,0,.521-.015.781-.014.22-.1.295-.333.314-.13.011-.261.01-.391.01q-2.314,0-4.628,0c-.74,0-.745-.006-.745-.767Q676.975,725.118,676.976,715.251Z" transform="translate(-404.677 -54.995)" fill="#1dcc1d"/>
    <path id="Path_5" data-name="Path 5" d="M494.64,709.79q0-6.969,0-13.938c0-1.133-.065-1.017,1.018-1.02q2.412-.007,4.823,0c.721,0,.728.006.729.723q0,3.452,0,6.9,0,9.541,0,19.083a17.64,17.64,0,0,0,.3,3.692,9.156,9.156,0,0,0,.74,2.217,6.611,6.611,0,0,0,2.64,2.805,9.685,9.685,0,0,0,3.369,1.158,18.639,18.639,0,0,0,5.2.119,12.016,12.016,0,0,0,2.66-.611,7.54,7.54,0,0,0,4.569-4.362,10.382,10.382,0,0,0,.765-3.217c.051-.627.069-1.257.07-1.886q.007-12.7,0-25.4c0-.261-.005-.521.008-.781.018-.353.088-.421.421-.439.152-.008.3,0,.456,0h4.824c.919,0,.863-.038.863.841q0,6.773,0,13.547,0,6.09,0,12.179a16.8,16.8,0,0,1-.856,5.507,12.569,12.569,0,0,1-5.311,6.708,16.749,16.749,0,0,1-5.668,2.226,26.593,26.593,0,0,1-6.743.454,28.368,28.368,0,0,1-4.01-.454,17.149,17.149,0,0,1-4.017-1.3,11.125,11.125,0,0,1-6.365-7.855,18.445,18.445,0,0,1-.487-4.26Q494.633,716.107,494.64,709.79Z" transform="translate(-264.134 -54.997)" fill="#1dcc1d"/>
    <path id="Path_6" data-name="Path 6" d="M243.534,751.633a10.737,10.737,0,0,1-1.258,4.013,6.5,6.5,0,0,1-4.117,3.17,9.426,9.426,0,0,1-4.644.067,6.813,6.813,0,0,1-4.713-3.78,10.983,10.983,0,0,1-1.018-3.617,19.7,19.7,0,0,1-.131-2.469c.009-2.237,0-4.472,0-6.709q0-3.906,0-7.814c0-.179-.105-.442.126-.513.163-.046.27.188.383.314q7.488,8.248,14.972,16.5a2.361,2.361,0,0,0,.177.193A.668.668,0,0,1,243.534,751.633Z" transform="translate(-58.331 -85.171)" fill="#1dcc1d"/>
    <path id="Path_7" data-name="Path 7" d="M243.534,751.633a10.737,10.737,0,0,1-1.258,4.013,6.5,6.5,0,0,1-4.117,3.17,9.426,9.426,0,0,1-4.644.067,6.813,6.813,0,0,1-4.713-3.78,10.983,10.983,0,0,1-1.018-3.617,19.7,19.7,0,0,1-.131-2.469c.009-2.237,0-4.472,0-6.709q0-3.906,0-7.814c0-.179-.105-.442.126-.513.163-.046.27.188.383.314q7.488,8.248,14.972,16.5a2.361,2.361,0,0,0,.177.193A.668.668,0,0,1,243.534,751.633Z" transform="translate(-58.331 -85.171)" fill="#1dcc1d"/>
  </g>
</svg>
